<?xml version="1.0" encoding="UTF-8"?>
<svg id="a" data-name="Camada 1" xmlns="http://www.w3.org/2000/svg" viewBox="0 0 4059.4 1817.1">
  <defs>
    <style>
      .b {
        fill: #ff4900;
      }

      .c {
        fill: #161616;
      }
    </style>
  </defs>
  <path class="b" d="M1874.9,243.6c3,2.2,13.7,63.9,14.7,73.2,22.9,211.1-90.2,356.5-283.4,426.3-145.8,52.7-300.9,55.6-454.3,62.7l-763.2,804.8-172.1-156.7,624.1-666.8-419.7-61.7,41.3-235.4c83.9,15.8,168.7,29.6,253.4,40.6,218.6,28.4,679.8,78.2,868.1-37.6,77.1-47.4,77.4-110.5,63-193.1l228-56.4Z"/>
  <path class="c" d="M979.7,1485.3l-6.1-5-170.2-155.2,330.1-365.7c102.8-92.1,253.5,21.5,188.9,143.5-9.1,17.1-24.9,33.5-37.5,48.6-81.7,97.8-172,190.6-258.7,283.8-12.8,13.8-32.1,35.7-46.5,50.1Z"/>
  <path class="c" d="M1218.4,225.8c185.2-19.5,202.6,266.7,17.7,271.9-170.8,4.8-189.6-253.8-17.7-271.9Z"/>
  <g>
    <path class="c" d="M1752.9,1464.1c-40.3,0-71.1-9.9-92.5-29.7-21.4-19.8-32.2-51.9-32.2-96.2v-190.8h-57.2v-89.9h57.2v-82.1l105.9-10.9v93h86.3v89.9h-86.3v185.3c0,25,11,37.5,32.9,37.5h43.9v93.8h-58Z"/>
    <path class="c" d="M1908.2,1023.9c-17.8,0-32.8-6.1-45.1-18.4-12.3-12.2-18.4-27-18.4-44.2s6.1-31.1,18.4-43.4c12.3-12.2,27.3-18.4,45.1-18.4s33.5,6.1,45.5,18.4c12,12.3,18,26.7,18,43.4s-6,32.6-18,44.6c-12,12-27.2,18-45.5,18ZM1855.6,1464.1v-406.6h105.9v406.6h-105.9Z"/>
    <path class="c" d="M2210.1,1474.2c-37.1,0-71-9.5-101.6-28.5-30.6-19-54.9-44.6-72.9-76.6-18-32.1-27.1-67.6-27.1-106.7s5.2-56.7,15.7-82.5c10.5-25.8,24.8-48.5,43.1-68,18.3-19.5,39.6-34.9,63.9-46.1,24.3-11.2,50.6-16.8,78.8-16.8s63.3,6.6,83.1,19.9c19.9,13.3,35.3,30.9,46.3,52.8v-64.1h105.1v406.6h-102.7v-66.5c-11,22.9-26.5,41.4-46.7,55.5-20.1,14.1-48.5,21.1-85.1,21.1ZM2227.4,1378.9c23.5,0,43.8-5.3,60.8-16,17-10.7,30.2-24.9,39.6-42.6,9.4-17.7,14.1-37,14.1-57.9s-4.7-40.9-14.1-58.6c-9.4-17.7-22.6-32.1-39.6-43-17-10.9-37.3-16.4-60.8-16.4s-42.2,5.4-59.2,16c-17,10.7-30.2,24.9-39.6,42.6-9.4,17.7-14.1,37.3-14.1,58.6s4.7,39.5,14.1,57.5c9.4,18,22.6,32.4,39.6,43.4,17,10.9,36.7,16.4,59.2,16.4Z"/>
    <path class="c" d="M2705.7,1630.6c-41.3,0-78-5.6-110.2-16.8-32.2-11.2-60.5-31.2-85.1-59.8l65.9-77.4c19.3,21.9,39.5,36.7,60.4,44.6,20.9,7.8,44.2,11.7,69.8,11.7s36.3-4.7,52.5-14.1c16.2-9.4,29.1-22.6,38.8-39.5,9.7-16.9,14.5-36.1,14.5-57.5v-18c-11,18.8-26,33.9-45.1,45.3-19.1,11.5-45.1,17.2-78,17.2s-70.7-9.4-100.8-28.1c-30.1-18.8-53.7-43.9-71-75.4-17.3-31.5-25.9-66.8-25.9-105.9s8.6-74.5,25.9-106.3c17.3-31.8,40.9-56.9,71-75.4,30.1-18.5,63.6-27.8,100.8-27.8s60.5,6,79.6,18c19.1,12,34.1,27.9,45.1,47.7v-55.5h104.3v370.6c0,41.7-9,77.7-27.1,107.9-18,30.2-43,53.6-74.9,70-31.9,16.4-68.8,24.6-110.6,24.6ZM2706.5,1370.3c35,0,62.2-10.9,81.6-32.8,19.3-21.9,29-48.7,29-80.5s-9.7-58.6-29-80.5c-19.3-21.9-46.5-32.8-81.6-32.8s-61.3,10.9-80.4,32.8c-19.1,21.9-28.6,48.7-28.6,80.5s4.3,39.1,12.9,56.3c8.6,17.2,21,31,37.3,41.4,16.2,10.4,35.8,15.6,58.8,15.6Z"/>
    <path class="c" d="M3182.5,1474.2c-41.8,0-79.2-9.7-112.1-28.9-32.9-19.3-58.7-45-77.2-77-18.6-32.1-27.8-67.6-27.8-106.7s9.3-74.8,27.8-107.1c18.6-32.3,44.3-58.1,77.2-77.4,32.9-19.3,70.3-28.9,112.1-28.9s79.9,9.7,112.5,28.9c32.7,19.3,58.3,45.1,76.9,77.4,18.6,32.3,27.8,68,27.8,107.1s-9.3,74.7-27.8,106.7c-18.6,32.1-44.2,57.7-76.9,77-32.7,19.3-70.2,28.9-112.5,28.9ZM3182.5,1378.1c22.5,0,42.1-5.3,58.8-16,16.7-10.7,29.7-24.9,38.8-42.6,9.1-17.7,13.7-37,13.7-57.9s-4.6-40.9-13.7-58.6c-9.2-17.7-22.1-31.9-38.8-42.6-16.7-10.7-36.3-16-58.8-16s-42.1,5.4-58.8,16c-16.7,10.7-29.7,24.9-38.8,42.6-9.2,17.7-13.7,37.3-13.7,58.6s4.6,40.1,13.7,57.9c9.1,17.7,22.1,31.9,38.8,42.6,16.7,10.7,36.3,16,58.8,16Z"/>
  </g>
  <g>
    <path class="b" d="M2157.7,982.8c-40.3,0-71.1-9.9-92.5-29.7-21.4-19.8-32.2-51.9-32.2-96.2v-190.8h-57.2v-89.9h57.2v-82.1l105.9-10.9v93h86.3v89.9h-86.3v185.3c0,25,11,37.5,32.9,37.5h43.9v93.8h-58Z"/>
    <path class="b" d="M2444.7,993c-41.8,0-78.7-9.7-110.6-28.9-31.9-19.3-56.6-45-74.1-77-17.5-32.1-26.3-67.6-26.3-106.7s9.1-74.9,27.4-107.5c18.3-32.6,43.3-58.5,74.9-77.8,31.6-19.3,67.8-28.9,108.6-28.9s76.7,9.7,107.8,28.9c31.1,19.3,55.4,45.2,72.9,77.8,17.5,32.6,26.3,68.4,26.3,107.5s-.3,11.7-.8,18c-.5,6.3-1.3,12.8-2.4,19.5h-305.1c5.7,24,17.4,43.5,34.9,58.6,17.5,15.1,39.6,22.7,66.3,22.7s43-5.2,60-15.6c17-10.4,30.2-23.5,39.6-39.1l82.3,61.8c-16.2,25.5-40.5,46.4-72.9,62.5-32.4,16.1-68.8,24.2-109,24.2ZM2443.2,656.8c-25.1,0-46.5,7.6-64.3,22.7-17.8,15.1-29.5,34.9-35.3,59.4h201.5c-5.8-22.4-17.6-41.7-35.7-57.9-18-16.1-40.1-24.2-66.3-24.2Z"/>
    <path class="b" d="M2878.4,993c-37.1,0-71-9.5-101.6-28.5-30.6-19-54.9-44.6-72.9-76.6-18-32.1-27.1-67.6-27.1-106.7s5.2-56.7,15.7-82.5c10.5-25.8,24.8-48.5,43.1-68,18.3-19.5,39.6-34.9,63.9-46.1,24.3-11.2,50.6-16.8,78.8-16.8s63.3,6.6,83.1,19.9c19.9,13.3,35.3,30.9,46.3,52.8v-64.1h105.1v406.6h-102.7v-66.5c-11,22.9-26.5,41.4-46.7,55.5-20.1,14.1-48.5,21.1-85.1,21.1ZM2895.7,897.6c23.5,0,43.8-5.3,60.8-16,17-10.7,30.2-24.9,39.6-42.6,9.4-17.7,14.1-37,14.1-57.9s-4.7-40.9-14.1-58.6c-9.4-17.7-22.6-32.1-39.6-43-17-10.9-37.3-16.4-60.8-16.4s-42.2,5.4-59.2,16c-17,10.7-30.2,24.9-39.6,42.6-9.4,17.7-14.1,37.3-14.1,58.6s4.7,39.5,14.1,57.5c9.4,18,22.6,32.4,39.6,43.4,17,10.9,36.7,16.4,59.2,16.4Z"/>
    <path class="b" d="M3175.6,982.8v-406.6h104.3v59.4c21.4-45.9,63-68.8,124.7-68.8s54.6,6.6,77.6,19.9c23,13.3,41.3,32.2,54.9,56.7,13.6-24.5,31-43.4,52.2-56.7,21.2-13.3,49.8-19.9,85.9-19.9s55.7,6.8,79.2,20.3c23.5,13.6,42.1,32.8,55.7,57.9,13.6,25,20.4,54.7,20.4,89.1v248.6h-105.9v-222.8c0-35.4-7.6-61.1-22.7-77-15.2-15.9-34.8-23.8-58.8-23.8s-44.6,7-60,21.1c-15.4,14.1-23.1,40.7-23.1,79.7v222.8h-105.9v-222.8c0-35.4-8.1-61.1-24.3-77-16.2-15.9-37.4-23.8-63.5-23.8s-42.2,8-59.2,23.8c-17,15.9-25.5,41.6-25.5,77v222.8h-105.9Z"/>
  </g>
</svg>